<?xml version="1.0" encoding="utf-8"?>
<!-- Generator: Adobe Illustrator 22.0.1, SVG Export Plug-In . SVG Version: 6.00 Build 0)  -->
<svg version="1.1" id="Layer_1" xmlns="http://www.w3.org/2000/svg" xmlns:xlink="http://www.w3.org/1999/xlink" x="0px" y="0px"
	 viewBox="0 0 5000 1394.7" style="enable-background:new 0 0 5000 1394.7;" xml:space="preserve">
<style type="text/css">
	.st0{fill:#1C3757;}
	.st1{clip-path:url(#SVGID_2_);fill:#FFFFFF;}
	.st2{clip-path:url(#SVGID_4_);fill:#FFFFFF;}
	.st3{clip-path:url(#SVGID_6_);fill:#FFFFFF;}
	.st4{clip-path:url(#SVGID_8_);fill:#DBC876;}
	.st5{fill:none;}
	.st6{font-family:'MyriadPro-Regular';}
	.st7{font-size:12px;}
	.st8{enable-background:new    ;}
	.st9{fill:#FFFFFF;}
</style>
<rect class="st0" width="5000" height="1394.7"/>
<g>
	<g>
		<defs>
			<rect id="SVGID_1_" width="5000" height="1394.7"/>
		</defs>
		<clipPath id="SVGID_2_">
			<use xlink:href="#SVGID_1_"  style="overflow:visible;"/>
		</clipPath>
		<rect y="320.3" class="st1" width="2069.1" height="19.7"/>
	</g>
	<g>
		<defs>
			<rect id="SVGID_3_" width="5000" height="1394.7"/>
		</defs>
		<clipPath id="SVGID_4_">
			<use xlink:href="#SVGID_3_"  style="overflow:visible;"/>
		</clipPath>
		<rect x="2930.9" y="320.3" class="st2" width="2069.1" height="19.7"/>
	</g>
	<g>
		<defs>
			<rect id="SVGID_5_" width="5000" height="1394.7"/>
		</defs>
		<clipPath id="SVGID_6_">
			<use xlink:href="#SVGID_5_"  style="overflow:visible;"/>
		</clipPath>
		<path class="st3" d="M196.3,1059.9L196.3,1059.9H0l0.8-8h9.7c13.9,0,25.9-4.8,35.8-14.5s15.2-21.5,15.7-35.4V554.6
			c0-13.9-5.1-25.7-15.3-35.4s-22.3-14.5-36.2-14.5H0.8l-0.8-8h160.1c55.3,0,98.2,12.2,128.7,36.6c30.6,24.4,45.9,57,45.9,97.8
			c0,32.2-8.6,58.9-25.7,80.1c-17.2,21.2-38.1,35.3-62.8,42.2c42.4,6.4,75.9,23.9,100.6,52.3c24.7,28.4,37,64.2,37,107.4
			s-16.5,78.5-49.5,105.8C301.3,1046.2,255.3,1059.9,196.3,1059.9 M114.3,522.4v508.5h78.9h1.6c40.8,0,72.4-11.1,94.9-33.4
			c22.5-22.3,33.8-53.8,33.8-94.5c0-23.1-3.9-43.3-11.7-60.7c-7.8-17.4-17.6-31.2-29.4-41.4c-31.1-25.7-77.8-38.6-140-38.6h-0.8V755
			h7.6c4.6,0,11.1-0.5,19.7-1.6c8.6-1.1,18.2-2.9,29-5.6c10.7-2.7,20.4-7,29-12.9S243.5,722,251,714c15.6-17.7,23.3-44.1,23.3-79.3
			c0-35.1-10.1-62.6-30.2-82.5c-20.1-19.8-49.2-29.8-87.3-29.8H114.3z M982.5,1051.9L982.5,1051.9h6.4v8h-165v-8h6.4
			c10.2,0,18-3.5,23.3-10.5c5.4-7,8-13.5,8-19.7s-1.1-12.2-3.2-18.1l-44.3-107H610.7l-44.3,104.6c-2.7,7-4,13.5-4,19.7
			c0,6.2,2.7,12.9,8,20.1c5.4,7.2,13.4,10.9,24.1,10.9h6.4v8H447.4v-8h6.4c11.3,0,22.7-3.9,34.2-11.7c11.5-7.8,21.1-19.4,28.6-35
			c117.5-251,178.6-382.5,183.5-394.3c9.1-22.5,13.9-37.5,14.5-45.1h7.2l198.7,439.3C936.1,1036.3,956.7,1051.9,982.5,1051.9
			 M714.5,652l-93.3,220.5h183.5L714.5,652z M1623.8,585.2h-13.7c-11.8,0-22,3.9-30.6,11.7s-13.1,17.3-13.7,28.6v342.8
			c0,31.1,1.9,60.6,5.6,88.5l1.6,14.5h-7.2l-418.4-396.7V1010c0,11.8,4.3,21.7,12.9,29.8c8.6,8,19,12.1,31.4,12.1h13.7v8h-152.1v-8
			h13.7c12.3,0,22.8-4,31.4-12.1c8.6-8,12.9-18,12.9-29.8V665.6c0-32.7-1.9-62-5.6-87.7l-1.6-12.9l8.9,0.8l417.6,393.5V625.4
			c-1.1-11.3-5.9-20.8-14.5-28.6s-18.8-11.7-30.6-11.7h-13.7v-8h152.1v8.1H1623.8z M2198.3,1051.9v8h-29.8
			c-52.6,0-92-15.3-118.3-45.9l-177-193.9l173-203.6c5.9-7.5,6.8-14.6,2.8-21.3s-10.9-10.1-20.5-10.1h-7.2v-8h164.1v8h-3.2
			c-32.7,0-58.7,9.7-78,29l-175.4,187.5l199.5,217.2c9.7,11.8,19.6,20.1,29.8,24.9C2168.2,1048.7,2181.6,1051.3,2198.3,1051.9
			 M1892.5,1051.9L1892.5,1051.9h8.9v8h-164.9v-8h9.7c12.9,0,23.9-4.3,33-12.9s13.9-18.8,14.5-30.6V628.6
			c-0.5-11.8-5.4-22-14.5-30.6s-20.1-12.9-33-12.9h-9.7v-8h164.9v8h-9.7c-17.2,0-30.6,7-40.2,20.9c-4.3,6.4-6.4,13.7-6.4,21.7v381.4
			c0,11.8,4.7,21.9,14.1,30.2C1868.5,1047.7,1879.6,1051.9,1892.5,1051.9 M2281.1,1033.4L2281.1,1033.4c-1.6-6.4-2.4-19.6-2.4-39.4
			c0-19.8,3.5-40,10.5-60.3h9.7c-0.5,4.8-0.8,9.7-0.8,14.5c0,29,9.5,52.7,28.6,71.2s45.5,27.8,79.3,27.8c35.4,0,63-8.2,82.9-24.5
			c19.8-16.4,29.8-37.5,29.8-63.6c0-26-9.7-47.6-29-64.8l-160.9-123.9c-25.7-22-38.6-51.5-38.6-88.5c0-20.9,5.8-40.2,17.3-57.9
			s27.6-31.8,48.3-42.2c20.7-10.5,44.9-15.7,72.8-15.7s52.6,2.4,74,7.2h26.6l1.6,87.7h-8.9c0-22.5-7.8-40-23.3-52.3
			c-15.6-12.3-37.8-18.5-66.8-18.5s-52.8,7.4-71.6,22.1c-18.8,14.8-28.2,33.8-28.2,57.1s10.5,43.6,31.4,60.7l162.5,125.5
			c24.7,20.4,37,48.8,37,85.3s-13.8,67.3-41.4,92.5c-27.6,25.2-61.3,37.8-101,37.8c-26.3,0-52.6-3.2-78.9-9.7
			C2315.2,1055.1,2295.1,1045.7,2281.1,1033.4 M3335.2,1051.9L3335.2,1051.9h12.1v8h-167.4v-7.2h12.1c8,0,15.2-3.1,21.3-9.3
			c6.2-6.2,8.7-13.5,7.6-22.1l-41.8-331.5L3027,989.1c-15,32.7-24.4,60.1-28.2,82.1h-8L2796.9,697l-36.2,324.3
			c-1.1,8,1.5,15.3,7.6,21.7c6.2,6.4,13.5,9.7,22.1,9.7h11.3v7.2h-148.9v-8h12.1c19.3,0,34.3-7,45.1-20.9c5.4-7,8.6-15.3,9.7-24.9
			l62.8-440.1h8l212.4,408.8L3208.1,566h7.2l65.2,441.7c2.1,13.4,8.3,24.1,18.5,32.2C3309.2,1047.8,3321.3,1051.9,3335.2,1051.9
			 M3564.5,597.7c41.3-21.2,86.8-31.8,136.4-31.8c49.6,0,95.1,10.6,136.4,31.8c41.3,21.2,74.2,51.1,98.6,89.7
			c24.4,38.6,36.6,82.3,36.6,131.2s-12.2,92.5-36.6,131.2c-24.4,38.6-57.3,68.5-98.6,89.7s-83.7,31.8-127.1,31.8
			c-43.4,0-81.8-6.2-115.1-18.5s-62.1-29.5-86.5-51.5s-43.7-48.8-57.9-80.5c-14.2-31.6-21.3-68.8-21.3-111.4
			c0-42.6,12.2-83.3,36.6-121.9C3490.4,648.7,3523.2,618.8,3564.5,597.7 M3549.6,983.1c40.5,42.6,90.8,64,150.9,64
			s110.5-21.3,151.3-64c40.8-42.6,61.2-97.5,61.2-164.5c0-67.1-20.4-121.9-61.2-164.5s-91.2-64-151.3-64s-110.4,21.3-150.9,64
			c-40.5,42.6-60.8,97.5-60.8,164.5C3488.9,885.6,3509.1,940.4,3549.6,983.1 M4234.8,602.1L4234.8,602.1h-42.6v406.3
			c0.5,16.6,8,29.2,22.5,37.8c7,3.8,14.8,5.6,23.3,5.6h10.5l0.8,8h-164.9v-8h11.3c12.3,0,22.9-4.2,31.8-12.5s13.3-18.4,13.3-30.2
			V627c0-11.8-4.4-21.7-13.3-29.8c-8.9-8-19.4-12.1-31.8-12.1h-11.3v-8h202c50.4,0,90.3,11.5,119.5,34.6s43.9,53.4,43.9,90.9
			s-11.8,68.9-35.4,94.1c-23.6,25.2-53.6,39.7-90.1,43.5c17.2,7.5,37.8,28.4,62,62.8c-0.5,0,8.7,11.8,27.8,35.4
			c19,23.6,34.3,42,45.9,55.1c11.5,13.1,21.1,23.2,28.6,30.2c19.8,18.8,42.6,28.2,68.4,28.2v8h-24.9c-42.4,0-75.6-8.3-99.8-24.9
			c-18.2-12.3-34.9-27.6-49.9-45.9c-3.2-4.3-16.8-23.2-40.6-56.7c-23.9-33.5-36.6-51.4-38.2-53.5c-29-35.9-56.1-53.9-81.3-53.9v-8
			c62.8,0,100.6-3.2,113.5-9.7c17.7-9.1,29.8-18.8,36.2-29c13.4-21.5,20.1-45.1,20.1-70.8c0-32.7-9.7-57.9-29-75.6
			c-19.3-17.7-45.3-27.4-78-29C4270.2,602.3,4253.6,602.1,4234.8,602.1 M4629.1,1051.9h11.3c12.9,0,23.7-4.2,32.6-12.5
			s13.5-18.4,14.1-30.2V627c0-11.8-4.6-21.7-13.7-29.8c-9.1-8-20.1-12.1-33-12.1h-11.3v-8h235c22,0,41.3-1.6,57.9-4.8
			s27.4-5.9,32.2-8V656l-8.9-0.8v-12.1c0-11.3-3.8-20.9-11.3-29c-7.5-8-17.2-12.1-29-12.1h-167.4v204.4h137.6
			c10.7,0,18.9-3.2,24.5-9.7c5.6-6.4,8.4-14.5,8.4-24.1v-10.5h8.9v112.6h-8.9v-10.5c0-15-5.6-25.2-16.9-30.6
			c-4.3-1.6-8.9-2.7-13.7-3.2h-140V1035H4864c24.7,0,45.5-4.3,62.4-12.9s29.8-18.8,38.6-30.6c8.9-11.8,17.8-27.4,27-46.7h8
			l-44.3,115.1H4629v-8H4629.1z"/>
	</g>
	<g>
		<defs>
			<rect id="SVGID_7_" width="5000" height="1394.7"/>
		</defs>
		<clipPath id="SVGID_8_">
			<use xlink:href="#SVGID_7_"  style="overflow:visible;"/>
		</clipPath>
		<path class="st4" d="M2484.2,22.8L2484.2,22.8c-8.9,0-15.6,0.6-20.1,1.8V0h28.9c48.7,0,85.4,9.2,110.1,27.5
			c22.6,16.7,33.8,39.9,33.8,69.7c0,23.7-8.7,43.5-26.2,59.4c-17.2,15.7-40.5,25.3-70,28.6v1.1c55,7.4,90.7,27.2,107.2,59.5
			c6.1,11.5,9.1,24.9,9.1,40.4s-2.7,29.8-8,43c-5.4,13.2-13.7,24.7-25,34.4c-24.3,20.8-59.5,31.1-105.8,31.1H2464v-24.5
			c4.1,1.1,12.4,1.7,25,1.7c32,0,55.6-6.5,70.5-19.5c15-13,22.5-33.8,22.5-62.4c0-28.7-8.1-50.8-24.3-66.1
			c-16.2-15.4-40.8-23-73.7-23h-20.1v-24.5h10.5c57.9,0,86.9-26.2,86.9-78.7C2561.5,47.8,2535.8,22.8,2484.2,22.8 M2441.1,0v394.7
			H2333v-16.4c5-2.3,9.9-4,14.7-5.3c4.6-1.3,8.8-3,12.5-5.1c7.9-4.4,11.8-12.5,11.8-24.3V51.1c0-11.9-3.9-20-11.8-24.5
			c-3.7-2-7.9-3.7-12.5-5c-4.7-1.3-9.6-3.1-14.7-5.3V0H2441.1z"/>
	</g>
</g>
<rect x="1044.7" y="1108" class="st5" width="3059.4" height="286.7"/>
<text transform="matrix(1 0 0 1 306 396)" class="st6 st7">&amp;</text>
<text transform="matrix(1 0 0 1 306 396)" class="st6 st7">&amp;</text>
<g class="st8">
	<path class="st9" d="M1317,1247.5h-0.5c-0.2-3.8-1.6-7-4.3-9.5c-2.7-2.5-6-3.8-10-3.8c-0.2,0-1.3,0-3.5,0v-2.5h20.8L1317,1247.5z
		 M1317,1365.7l2.5,16h-20.8v-2.5c2.2,0,3.3,0,3.5,0c4,0,7.4-1.3,10-4c2.7-2.7,4.1-5.8,4.3-9.5H1317z M1339.1,1231.7v150h-22.6v-150
		H1339.1z M1338.6,1365.7h0.5c0.2,3.7,1.6,6.8,4.3,9.5c2.7,2.7,6.1,4,10.3,4h3.3v2.5h-20.8L1338.6,1365.7z M1405.3,1231.7v8.5h-66.7
		v-8.5H1405.3z M1393.5,1302.7v8.5h-54.9v-8.5H1393.5z M1405.3,1227.7v6.5l-28.1-2.5c3.3,0,6.9-0.2,10.7-0.6c3.8-0.4,7.2-1,10.4-1.6
		C1401.4,1228.8,1403.8,1228.2,1405.3,1227.7z M1393.5,1286.5v16.8h-16v-0.5c4.5,0,7.9-1.3,10-4c2.2-2.7,3.3-5.8,3.3-9.5v-2.8
		H1393.5z M1393.5,1310.7v16.8h-2.8v-2.8c0-3.8-1.1-7-3.3-9.6c-2.2-2.6-5.5-3.9-10-3.9v-0.5H1393.5z M1405.3,1239.5v20.5h-2.8v-3.3
		c0-4.8-1.4-8.8-4.3-11.9c-2.8-3.1-6.8-4.6-11.8-4.6v-0.8H1405.3z"/>
	<path class="st9" d="M1454.4,1247.7h-0.8c-0.2-3.8-1.8-7-4.9-9.6c-3.1-2.6-6.9-3.9-11.4-3.9h-3.3v-2.5h20.3V1247.7z M1454.4,1365.7
		v16h-20.3v-2.5c2.2,0,3.3,0,3.5,0c4.3,0,8.1-1.3,11.2-4c3.1-2.7,4.7-5.8,4.9-9.5H1454.4z M1476.2,1231.7v150h-22.6v-150H1476.2z
		 M1475.5,1247.7v-16h20.3l-0.3,2.5h-3c-4.5,0-8.3,1.3-11.4,3.9c-3.1,2.6-4.7,5.8-4.9,9.6H1475.5z M1475.5,1365.7h0.8
		c0.2,3.7,1.8,6.8,4.9,9.5c3.1,2.7,6.9,4,11.4,4h3l0.3,2.5h-20.3V1365.7z"/>
	<path class="st9" d="M1537.1,1366.2v15.5h-18.8v-2.5h4.3c3.8,0,7.1-1.3,9.8-3.8c2.7-2.5,4-5.6,4-9.3H1537.1z M1536.4,1228l18.8,22
		l0.3,131.8h-19.1v-123.3c0-8.5-0.8-18.7-2.3-30.5H1536.4z M1536.4,1228l141.6,130l2.5,27.3l-141.4-130.5L1536.4,1228z
		 M1555.4,1366.2c0,3.7,1.4,6.8,4.1,9.3s6,3.8,9.7,3.8h4.3v2.5h-18.8v-15.5H1555.4z M1661.7,1247.2c-0.2-3.7-1.6-6.8-4.3-9.3
		c-2.7-2.5-5.9-3.8-9.8-3.8h-4.3v-2.5h18.8v15.5H1661.7z M1680.5,1231.7V1354c0,5.5,0.2,10.6,0.5,15.4c0.3,4.8,0.9,10,1.8,15.9h-2.3
		l-18.8-22.3v-131.3H1680.5z M1679.8,1247.2v-15.5h18.8v2.5h-4.3c-3.7,0-6.9,1.3-9.7,3.8c-2.8,2.5-4.1,5.6-4.1,9.3H1679.8z"/>
	<path class="st9" d="M1744.2,1364c-1.8,4.8-1.6,8.6,0.8,11.3c2.3,2.7,5,4,8,4h2v2.5h-48.6v-2.5h2c3.3,0,6.9-1.2,10.5-3.5
		c3.7-2.3,6.9-6.3,9.5-11.8H1744.2z M1792.1,1227.2l1.5,21.5l-56.4,132.3h-16.8l59.2-126.5c0.2-0.3,0.8-1.6,1.8-3.9
		c1-2.3,2.1-4.9,3.4-7.9c1.3-3,2.4-5.9,3.5-8.8c1.1-2.8,1.7-5.1,1.9-6.8H1792.1z M1819.1,1326.5v8.3h-65.7v-8.3H1819.1z
		 M1792.1,1227.2l70.7,153h-27.3l-51.1-123L1792.1,1227.2z M1828.9,1364h26.6c2.5,5.5,5.6,9.4,9.3,11.8c3.7,2.3,7.2,3.5,10.5,3.5h2
		v2.5h-58.9v-2.5h2c2.8,0,5.4-1.3,7.8-4C1830.5,1372.6,1830.8,1368.8,1828.9,1364z"/>
	<path class="st9" d="M1903.6,1366.2v15.5h-18.8v-2.5h4.3c3.8,0,7.1-1.3,9.8-3.8c2.7-2.5,4-5.6,4-9.3H1903.6z M1902.9,1228l18.8,22
		l0.3,131.8h-19.1v-123.3c0-8.5-0.8-18.7-2.3-30.5H1902.9z M1902.9,1228l141.6,130l2.5,27.3l-141.4-130.5L1902.9,1228z
		 M1921.9,1366.2c0,3.7,1.4,6.8,4.1,9.3s6,3.8,9.7,3.8h4.3v2.5h-18.8v-15.5H1921.9z M2028.2,1247.2c-0.2-3.7-1.6-6.8-4.3-9.3
		c-2.7-2.5-5.9-3.8-9.8-3.8h-4.3v-2.5h18.8v15.5H2028.2z M2047,1231.7V1354c0,5.5,0.2,10.6,0.5,15.4c0.3,4.8,0.9,10,1.8,15.9h-2.3
		l-18.8-22.3v-131.3H2047z M2046.3,1247.2v-15.5h18.8v2.5h-4.3c-3.7,0-6.9,1.3-9.7,3.8c-2.8,2.5-4.1,5.6-4.1,9.3H2046.3z"/>
	<path class="st9" d="M2238.5,1318.7l-0.8,35.5c-4,6.2-9.3,11.6-15.9,16.3c-6.6,4.7-14.2,8.3-22.8,10.9c-8.6,2.6-18,3.9-28.2,3.9
		c-17.5-0.2-32.7-3.4-45.5-9.8s-22.6-15.3-29.5-26.9c-6.9-11.6-10.3-25.5-10.3-41.9c0-16.3,3.4-30.3,10.3-42
		c6.9-11.7,16.7-20.7,29.5-27c12.8-6.3,28-9.5,45.5-9.5c10.7,0,21.2,1.3,31.5,3.8s19.1,5.9,26.4,10.3l3.8,36.8h-2.3
		c-3.8-15.3-11-26.3-21.4-32.8c-10.4-6.5-22.9-9.8-37.2-9.8c-12.9,0-23.9,2.9-33,8.6c-9.1,5.8-16.1,13.8-21.1,24.3
		c-4.9,10.4-7.4,22.8-7.4,37.1c0,14.2,2.5,26.5,7.4,37c4.9,10.5,11.9,18.6,20.9,24.3c9,5.7,19.8,8.7,32.3,9c12.4,0,23.2-2,32.5-6
		c9.3-4,16.8-10.3,22.6-18.8s9.3-19.6,10.7-33.3H2238.5z"/>
	<path class="st9" d="M2282.7,1247.5h-0.5c-0.2-3.8-1.5-7-4.1-9.5c-2.6-2.5-5.9-3.8-9.9-3.8c-0.2,0-1.3,0-3.5,0v-2.5h20.8
		L2282.7,1247.5z M2282.7,1365.7l2.8,16h-20.8v-2.5c2.2,0,3.3,0,3.5,0c4,0,7.3-1.3,9.9-4c2.6-2.7,4-5.8,4.1-9.5H2282.7z
		 M2305,1231.7v150h-22.8v-150H2305z M2370.1,1231.7v8.5h-65.7v-8.5H2370.1z M2358.9,1302.7v8.5h-54.4v-8.5H2358.9z M2369.4,1373.2
		l1.8,8.5h-66.7v-8.5H2369.4z M2384.2,1342.5l-12.3,39.3H2332l8.3-8.5c7.9,0,14.4-1.3,19.7-3.9c5.3-2.6,9.7-6.2,13.2-10.9
		c3.5-4.7,6.3-10,8.5-16H2384.2z M2370.1,1227.7v6.5l-27.8-2.5c5.2,0,10.6-0.5,16.3-1.4C2364.3,1229.4,2368.1,1228.6,2370.1,1227.7z
		 M2358.9,1286.5v16.8h-16v-0.5c4.3,0,7.6-1.3,9.9-4c2.3-2.7,3.4-5.8,3.4-9.5v-2.8H2358.9z M2358.9,1310.7v16.8h-2.8v-2.8
		c0-3.8-1.1-7-3.4-9.6c-2.3-2.6-5.6-3.9-9.9-3.9v-0.5H2358.9z M2370.1,1239.5v20.5h-2.5v-3.3c0-4.8-1.4-8.8-4.3-11.9
		c-2.8-3.1-6.8-4.6-11.8-4.6v-0.8H2370.1z"/>
	<path class="st9" d="M2617.8,1298c1.3,9.2,1.5,18,0.5,26.4c-1,8.4-3.2,16.3-6.6,23.5c-3.4,7.3-8.1,13.6-14,19.1
		c-5.9,5.5-13,9.8-21.3,12.8c-8.3,3-17.8,4.5-28.7,4.5c-9,0-17.6-0.8-25.7-2.3c-8.1-1.5-15.5-3.8-22.1-6.8
		c-6.6-3-12.4-6.8-17.3-11.5c-4.9-4.7-8.7-10.1-11.3-16.3c-2.6-6.2-3.9-13.2-3.9-21c0-5.5,0.8-10.5,2.3-14.9c1.5-4.4,3.6-8.4,6.3-12
		c2.7-3.6,5.7-6.7,9-9.4c3.3-2.7,6.9-5,10.5-7c3.7-2,7.4-3.6,11-4.8l4,5.3c-2.7,2.3-5.1,4.9-7.3,7.8c-2.2,2.8-4.1,5.9-5.8,9.3
		c-1.7,3.3-2.9,7-3.6,11.1c-0.8,4.1-1.1,8.4-1.1,12.9c0.2,7.8,1.7,14.9,4.5,21.1c2.8,6.3,6.8,11.6,11.8,16c5,4.4,11.1,7.8,18.2,10.3
		c7.1,2.4,15,3.6,23.7,3.6c8.5,0,16.1-1.8,22.7-5.3c6.6-3.5,12.1-8.1,16.5-13.9c4.4-5.8,7.7-12.1,9.8-19c2.1-6.9,3-13.9,2.6-20.9
		c-0.3-7-1.9-13.4-4.8-19.3c-1.7-3.5-3.8-6.3-6.4-8.4c-2.6-2.1-5.8-3.1-9.7-3.1h-3.8v-2.5h52.9v2.5h-3.8c-3.7,0-6.2,1.1-7.6,3.4
		C2618,1291.6,2617.5,1294.5,2617.8,1298z M2543.6,1203.2c6,0,11.9,0.7,17.7,2.1c5.8,1.4,11,3.4,15.8,6c4.8,2.6,8.6,5.8,11.7,9.6
		l-6,30.8h-2.5c0-7.8-1.4-14.8-4.1-20.8s-6.6-10.7-11.7-14.1c-5-3.4-11.2-5.1-18.6-5.1c-9.2,0-16.8,3.1-22.7,9.4
		c-5.9,6.3-8.9,14.2-8.9,23.9c0,10.2,3.5,19.7,10.5,28.6c7,8.9,17.1,19.2,30.3,30.9c3.5,3.2,7.5,6.8,11.9,10.9
		c4.4,4.1,9.3,8.4,14.7,12.9c5.3,4.5,10.9,9.3,16.8,14.3c6.5,5.3,12.9,10.7,19.1,16c6.2,5.3,12.3,9.9,18.3,13.6s12,6.1,18,7.1v2.5
		c-4.2,0.2-9.7,0.3-16.5,0.3c-6.9,0-14.2-1-21.9-3.1c-7.8-2.1-15.5-6.1-23.2-12.1c-5.7-4.5-11.1-8.9-16.3-13.1
		c-5.2-4.3-10.1-8.3-14.7-12.1c-4.6-3.8-8.9-7.5-12.8-11c-3.9-3.5-7.5-6.7-10.7-9.5c-9.7-8.8-18.1-17-25.3-24.6
		c-7.2-7.6-12.7-15.3-16.7-23.3c-3.9-7.9-5.9-16.8-5.9-26.6c0-6.7,1.3-12.6,4-17.9c2.7-5.3,6.4-9.8,11.3-13.6
		c4.8-3.8,10.5-6.8,17-8.8C2528.8,1204.2,2535.9,1203.2,2543.6,1203.2z"/>
	<path class="st9" d="M2735.4,1247.5h-0.5c-0.2-3.8-1.6-7-4.3-9.5c-2.7-2.5-5.9-3.8-9.8-3.8c-0.2,0-0.8,0-1.8,0c-1,0-1.6,0-1.8,0
		v-2.5h20.3L2735.4,1247.5z M2735.4,1365.7l2.3,16h-20.3v-2.5c0.2,0,0.8,0,1.8,0c1,0,1.6,0,1.8,0c3.8,0,7.1-1.3,9.8-4
		c2.7-2.7,4.1-5.8,4.3-9.5H2735.4z M2757.4,1231.7v150h-22.8v-150H2757.4z M2756.7,1365.7h0.8c0,3.8,1.4,7,4.1,9.6
		c2.8,2.6,6.1,3.9,9.9,3.9c1.8,0,2.8,0,3,0l0.3,2.5h-20.6L2756.7,1365.7z M2785,1231.7c7.5,0,14.5,0.8,20.8,2.5
		c6.3,1.7,11.9,4.2,16.5,7.6c4.7,3.4,8.3,7.7,10.9,12.8c2.6,5.1,3.9,11,3.9,17.9c0,6.5-1.5,12.7-4.5,18.6c-3,5.9-7.4,10.9-13,14.9
		c-5.7,4-12.4,6.5-20.1,7.5c3.5,1.2,7.3,3.8,11.3,8c4,4.2,7.3,8.2,9.8,12c0.3,0.3,1.5,2,3.5,4.9c2,2.9,4.6,6.4,7.6,10.5
		c3.1,4.1,6.2,8.1,9.4,12.1c3.5,4,6.6,7.3,9.4,10c2.8,2.7,5.7,4.7,8.9,6.1c3.2,1.4,6.9,2.1,11,2.1v2.5h-12c-9.2,0-16.8-1-22.8-3
		c-6-2-11-4.8-15-8.3s-7.5-7.3-10.5-11.5c-1-1.2-2.6-3.4-4.8-6.8c-2.2-3.3-4.5-6.9-6.9-10.6c-2.4-3.8-4.6-7.2-6.6-10.4
		c-2-3.2-3.3-5.3-3.8-6.3c-3-4.7-6.4-8.5-10.2-11.6c-3.8-3.1-7.6-4.6-11.7-4.6v-2.5c4.3,0.2,8.2,0.2,11.5,0
		c4.3-0.2,8.6-0.6,12.9-1.4c4.3-0.8,8.2-2.8,11.9-6c3.7-3.3,6.5-8.4,8.5-15.4c0.5-1.5,0.9-3.4,1.3-5.6c0.3-2.3,0.4-4.7,0.3-7.4
		c-0.3-5.2-1.3-9.6-3-13.3c-1.7-3.7-4-6.7-6.9-9.1c-2.9-2.4-6.2-4.3-9.8-5.5c-3.6-1.3-7.5-2-11.7-2.1c-6.2-0.2-11.7-0.2-16.4-0.1
		c-4.8,0.1-7.4,0-7.9-0.1c-0.8-2.8-1.7-5.7-2.5-8.5H2785z"/>
	<path class="st9" d="M2897.8,1247.5h-0.5c-0.2-3.8-1.5-7-4.1-9.5c-2.6-2.5-5.9-3.8-9.9-3.8c-0.2,0-1.3,0-3.5,0v-2.5h20.8
		L2897.8,1247.5z M2897.8,1365.7l2.8,16h-20.8v-2.5c2.2,0,3.3,0,3.5,0c4,0,7.3-1.3,9.9-4c2.6-2.7,4-5.8,4.1-9.5H2897.8z
		 M2920.1,1231.7v150h-22.8v-150H2920.1z M2985.3,1231.7v8.5h-65.7v-8.5H2985.3z M2974,1302.7v8.5h-54.4v-8.5H2974z M2984.6,1373.2
		l1.8,8.5h-66.7v-8.5H2984.6z M2999.3,1342.5l-12.3,39.3h-39.9l8.3-8.5c7.9,0,14.4-1.3,19.7-3.9c5.3-2.6,9.7-6.2,13.2-10.9
		c3.5-4.7,6.3-10,8.5-16H2999.3z M2985.3,1227.7v6.5l-27.8-2.5c5.2,0,10.6-0.5,16.3-1.4C2979.5,1229.4,2983.3,1228.6,2985.3,1227.7z
		 M2974,1286.5v16.8h-16v-0.5c4.3,0,7.6-1.3,9.9-4c2.3-2.7,3.4-5.8,3.4-9.5v-2.8H2974z M2974,1310.7v16.8h-2.8v-2.8
		c0-3.8-1.1-7-3.4-9.6c-2.3-2.6-5.6-3.9-9.9-3.9v-0.5H2974z M2985.3,1239.5v20.5h-2.5v-3.3c0-4.8-1.4-8.8-4.3-11.9
		c-2.8-3.1-6.8-4.6-11.8-4.6v-0.8H2985.3z"/>
	<path class="st9" d="M3044.2,1364c-1.8,4.8-1.6,8.6,0.8,11.3c2.3,2.7,5,4,8,4h2v2.5h-48.6v-2.5h2c3.3,0,6.9-1.2,10.5-3.5
		c3.7-2.3,6.9-6.3,9.5-11.8H3044.2z M3092.1,1227.2l1.5,21.5l-56.4,132.3h-16.8l59.2-126.5c0.2-0.3,0.8-1.6,1.8-3.9s2.1-4.9,3.4-7.9
		c1.3-3,2.4-5.9,3.5-8.8c1.1-2.8,1.7-5.1,1.9-6.8H3092.1z M3119.2,1326.5v8.3h-65.7v-8.3H3119.2z M3092.1,1227.2l70.7,153h-27.3
		l-51.1-123L3092.1,1227.2z M3128.9,1364h26.6c2.5,5.5,5.6,9.4,9.3,11.8c3.7,2.3,7.2,3.5,10.5,3.5h2v2.5h-58.9v-2.5h2
		c2.8,0,5.4-1.3,7.8-4C3130.5,1372.6,3130.8,1368.8,3128.9,1364z"/>
	<path class="st9" d="M3207.4,1247.7h-0.5c-0.2-3.8-1.6-7-4.4-9.6c-2.8-2.6-6.1-3.9-10.2-3.9h-3v-2.5h18V1247.7z M3207.4,1365.7
		l2.8,16h-20.8v-2.5c2.2,0,3.3,0,3.5,0c4,0,7.3-1.3,9.9-4c2.6-2.7,4-5.8,4.1-9.5H3207.4z M3229.7,1231.7v150h-22.8v-150H3229.7z
		 M3229,1247.7v-16h18.3v2.5c-0.2,0-1.2,0-3,0c-4,0-7.4,1.3-10.3,3.9c-2.8,2.6-4.3,5.8-4.3,9.6H3229z M3294.1,1373.2l1.8,8.5h-66.7
		v-8.5H3294.1z M3308.9,1342.5l-12.3,39.3h-39.9l8.3-8.5c7.9,0,14.4-1.3,19.7-3.9c5.3-2.6,9.7-6.2,13.2-10.9c3.5-4.7,6.3-10,8.5-16
		H3308.9z"/>
	<path class="st9" d="M3343.5,1247.7h-0.8c-0.2-3.8-1.8-7-4.9-9.6c-3.1-2.6-6.9-3.9-11.4-3.9h-3.3v-2.5h20.3V1247.7z M3343.5,1365.7
		v16h-20.3v-2.5c2.2,0,3.3,0,3.5,0c4.3,0,8.1-1.3,11.2-4c3.1-2.7,4.7-5.8,4.9-9.5H3343.5z M3365.3,1231.7v150h-22.6v-150H3365.3z
		 M3364.6,1247.7v-16h20.3l-0.3,2.5h-3c-4.5,0-8.3,1.3-11.4,3.9c-3.1,2.6-4.7,5.8-4.9,9.6H3364.6z M3364.6,1365.7h0.8
		c0.2,3.7,1.8,6.8,4.9,9.5c3.1,2.7,6.9,4,11.4,4h3l0.3,2.5h-20.3V1365.7z"/>
	<path class="st9" d="M3403.2,1227.5c1.5,0.5,3.8,1.1,6.9,1.8c3.1,0.7,6.5,1.2,10.3,1.6c3.8,0.4,7.2,0.6,10.4,0.6l-27.6,2.5V1227.5z
		 M3543.6,1231.5v8.3h-140.4v-8.3H3543.6z M3422,1239.2v0.5c-5,0.2-8.9,1.8-11.8,4.8c-2.8,3-4.3,6.9-4.3,11.8v3.3h-2.8v-20.3H3422z
		 M3462.3,1365.7v16h-17.8v-2.5c0.2,0,1.2,0,3,0c3.8,0,7.1-1.3,9.9-4c2.8-2.7,4.2-5.8,4.4-9.5H3462.3z M3484.9,1232.5v149.3h-23.1
		v-149.3H3484.9z M3484.2,1365.7h0.8c0,3.7,1.4,6.8,4.3,9.5c2.8,2.7,6.2,4,10,4h2.8v2.5h-17.8V1365.7z M3543.6,1227.5v6.5l-27.6-2.5
		c3.2,0,6.6-0.2,10.4-0.6c3.8-0.4,7.2-1,10.3-1.6C3539.8,1228.6,3542.1,1228,3543.6,1227.5z M3543.6,1239.2v20.3h-2.8v-3.3
		c0-4.8-1.4-8.8-4.3-11.8c-2.8-3-6.8-4.6-11.8-4.8v-0.5H3543.6z"/>
	<path class="st9" d="M3604,1247.5l-27.8-0.8c-2.5-3.8-5.7-6.9-9.7-9.1c-3.9-2.3-8.3-3.4-13.2-3.4h-3v-2.5h64.2v2.5h-2.8
		c-3.7,0-6.3,1.5-7.9,4.4C3602.3,1241.5,3602.3,1244.5,3604,1247.5z M3595.2,1232l46.6,82l-18,7l-56.9-89H3595.2z M3622.5,1365.7v16
		h-18v-2.5c0.2,0,1.2,0,3,0c4,0,7.4-1.3,10-4c2.7-2.7,4.1-5.8,4.3-9.5H3622.5z M3644.8,1316v65.8h-23.1v-65.5L3644.8,1316z
		 M3684.7,1232h16.8l-58.7,89.3l-10.3-2.5L3684.7,1232z M3644.1,1365.7h0.8c0.2,3.7,1.6,6.8,4.4,9.5c2.8,2.7,6.1,4,9.9,4h3v2.5h-18
		V1365.7z M3675.4,1247.5c1.8-3.2,1.9-6.2,0.1-9c-1.8-2.8-4.4-4.3-7.9-4.3h-3v-2.5h52.9v2.5h-3c-4.7,0-9,1.3-13,3.8
		s-7.2,5.4-9.5,8.8L3675.4,1247.5z"/>
</g>
</svg>
