<svg xmlns="http://www.w3.org/2000/svg" width="190.516" height="36.101" viewBox="0 0 190.516 36.101">
  <g id="Group_37" data-name="Group 37" transform="translate(-513.484 -14.328)">
    <g id="Group_13" data-name="Group 13" transform="translate(36 -170)">
      <g id="Group_38" data-name="Group 38" transform="translate(-5 -6.094)">
        <path id="Icon_ionic-ios-settings" data-name="Icon ionic-ios-settings" d="M36.695,22.046a4.516,4.516,0,0,1,2.9-4.213,17.9,17.9,0,0,0-2.166-5.218,4.576,4.576,0,0,1-1.837.393,4.506,4.506,0,0,1-4.121-6.342A17.845,17.845,0,0,0,26.259,4.5a4.512,4.512,0,0,1-8.426,0,17.9,17.9,0,0,0-5.218,2.166,4.506,4.506,0,0,1-4.121,6.342,4.427,4.427,0,0,1-1.837-.393A18.3,18.3,0,0,0,4.5,17.842a4.514,4.514,0,0,1,.009,8.426,17.9,17.9,0,0,0,2.166,5.218,4.507,4.507,0,0,1,5.949,5.949A18,18,0,0,0,17.842,39.6a4.5,4.5,0,0,1,8.407,0,17.9,17.9,0,0,0,5.218-2.166,4.512,4.512,0,0,1,5.949-5.949,18,18,0,0,0,2.166-5.218A4.537,4.537,0,0,1,36.695,22.046Zm-14.567,7.3a7.311,7.311,0,1,1,7.311-7.311A7.309,7.309,0,0,1,22.128,29.347Z" transform="translate(478.484 186.421)" fill="#10af53" stroke="#10af52" stroke-linejoin="round" stroke-width="1"/>
        <path id="Icon_ionic-ios-settings-2" data-name="Icon ionic-ios-settings" d="M36.695,22.046a4.516,4.516,0,0,1,2.9-4.213,17.9,17.9,0,0,0-2.166-5.218,4.576,4.576,0,0,1-1.837.393,4.506,4.506,0,0,1-4.121-6.342A17.845,17.845,0,0,0,26.259,4.5a4.512,4.512,0,0,1-8.426,0,17.9,17.9,0,0,0-5.218,2.166,4.506,4.506,0,0,1-4.121,6.342,4.427,4.427,0,0,1-1.837-.393A18.3,18.3,0,0,0,4.5,17.842a4.514,4.514,0,0,1,.009,8.426,17.9,17.9,0,0,0,2.166,5.218,4.507,4.507,0,0,1,5.949,5.949A18,18,0,0,0,17.842,39.6a4.5,4.5,0,0,1,8.407,0,17.9,17.9,0,0,0,5.218-2.166,4.512,4.512,0,0,1,5.949-5.949,18,18,0,0,0,2.166-5.218A4.537,4.537,0,0,1,36.695,22.046Zm-14.567,7.3a7.311,7.311,0,1,1,7.311-7.311A7.309,7.309,0,0,1,22.128,29.347Z" transform="translate(482.383 186.421)" fill="#fff" stroke="#10af52" stroke-linejoin="round" stroke-width="1"/>
      </g>
      <g id="Group_41" data-name="Group 41">
        <text id="TECH-CO-SERVICE" transform="translate(524 201)" font-size="13" font-family="Montserrat-Bold, Montserrat" font-weight="700" letter-spacing="0.1em"><tspan x="0" y="0">TECH-CO-SERVICE</tspan></text>
        <text id="Technical_Cooperation_Services" data-name="Technical Cooperation Services" transform="translate(526 215)" fill="#10af53" font-size="9" font-family="Montserrat-Regular, Montserrat"><tspan x="0" y="0">Technical Cooperation Services</tspan></text>
      </g>
    </g>
  </g>
</svg>
