<svg xmlns="http://www.w3.org/2000/svg" width="18.5" height="18.5" viewBox="0 0 18.5 18.5">
  <path id="Icon_awesome-phone-alt" data-name="Icon awesome-phone-alt" d="M17.972,13.073l-4.047-1.734a.867.867,0,0,0-1.012.249l-1.792,2.19a13.393,13.393,0,0,1-6.4-6.4l2.19-1.792a.865.865,0,0,0,.249-1.012L5.423.524a.873.873,0,0,0-.994-.5L.672.889A.867.867,0,0,0,0,1.735,16.764,16.764,0,0,0,16.765,18.5a.867.867,0,0,0,.846-.672l.867-3.758a.878.878,0,0,0-.506-1Z" transform="translate(0 0)" fill="#10af53"/>
</svg>
