<svg xmlns="http://www.w3.org/2000/svg" width="125.202" height="100" viewBox="0 0 125.202 100">
  <path id="Icon_awesome-home" data-name="Icon awesome-home" d="M60.94,28.2,20.868,62.1V98.682a3.526,3.526,0,0,0,3.478,3.572l24.356-.065a3.526,3.526,0,0,0,3.46-3.572V77.251a3.526,3.526,0,0,1,3.478-3.572h13.91a3.526,3.526,0,0,1,3.478,3.572V98.6a3.622,3.622,0,0,0,1.015,2.533,3.432,3.432,0,0,0,2.463,1.05l24.347.069a3.526,3.526,0,0,0,3.478-3.572V62.07L64.265,28.2A2.6,2.6,0,0,0,60.94,28.2Zm63.3,23.041-18.17-15.383V4.932a2.644,2.644,0,0,0-2.608-2.679H91.288A2.644,2.644,0,0,0,88.68,4.932V21.142L69.221,4.7a10.221,10.221,0,0,0-13.258,0L.946,51.237A2.729,2.729,0,0,0,.6,55.009L6.14,61.93a2.589,2.589,0,0,0,1.764.965,2.562,2.562,0,0,0,1.911-.6L60.94,19.043a2.6,2.6,0,0,1,3.325,0l51.127,43.25a2.561,2.561,0,0,0,3.673-.357l5.542-6.92a2.729,2.729,0,0,0,.58-1.969,2.7,2.7,0,0,0-.95-1.811Z" transform="translate(0.001 -2.254)" fill="#dbc876"/>
</svg>
