<svg xmlns="http://www.w3.org/2000/svg" width="192.308" height="100" viewBox="0 0 192.308 100">
  <path id="Icon_map-finance" data-name="Icon map-finance" d="M165.385,8.64H0v100H192.308V8.64Zm19.231,74.119a25.769,25.769,0,0,0-18.188,18.188H25.881A25.781,25.781,0,0,0,7.692,82.759V34.521A25.781,25.781,0,0,0,25.881,16.332H166.515a26.95,26.95,0,0,0,18.1,18.1V82.759ZM104.292,66.544c-.885-.538-.446-1.035-4.292-1.492V76.194l2.108-.392q4.281-1.5,4.285-5.581A4.115,4.115,0,0,0,104.292,66.544ZM86.981,48.363a4.129,4.129,0,0,0,2.335,3.846A15.558,15.558,0,0,0,92.3,53.321V42.778a9.208,9.208,0,0,0-2.958,1.212A4.97,4.97,0,0,0,86.981,48.363Zm9.173-28.185c-19.119,0-34.615,17.223-34.615,38.462S77.035,97.1,96.154,97.1s34.615-17.227,34.615-38.462S115.273,20.178,96.154,20.178Zm14.823,60.208c-2.612,2.231-7.131,3.6-10.977,4.112v4.912H92.308v-5c-4.015-.546-7.342-1.154-9.954-3.212a14.308,14.308,0,0,1-5.431-11.019h9.569c.312,0,.919,3.081,1.827,4.169.942,1.119,2.281,1.25,3.988,1.723v-13.1c-4.681-1.081-7.942-2.246-9.754-3.5Q77.7,56.157,77.7,49.09A13.782,13.782,0,0,1,82.45,38.382a17.585,17.585,0,0,1,9.858-4.023V27.871H100v6.692a18.881,18.881,0,0,1,8.846,4.138c3.612,2.681,6.154,4.554,6.327,12.246h-9.638c-.181-3.846-2.112-5.508-4.508-6.723a7.835,7.835,0,0,1-1.027-.8V55.517l3.469.669c3.688.869,7.1,2.031,8.938,3.481,2.862,2.262,3.969,5.527,3.969,9.8.008,4.385-2.015,8.023-5.4,10.923Z" transform="translate(0 -8.64)" fill="#dbc876"/>
</svg>
