<svg xmlns="http://www.w3.org/2000/svg" width="93.759" height="100" viewBox="0 0 93.759 100">
  <path id="Icon_awesome-shield-alt" data-name="Icon awesome-shield-alt" d="M89.122,16.346,51.618.72a9.4,9.4,0,0,0-7.208,0L6.907,16.346A9.366,9.366,0,0,0,1.125,25c0,38.773,22.365,65.573,43.266,74.285a9.4,9.4,0,0,0,7.208,0C68.339,92.311,94.884,68.226,94.884,25A9.378,9.378,0,0,0,89.122,16.346Zm-41.1,70.827L48.018,62.6,48,12.752,82.363,27.07c-.645,29.573-16.037,51-34.339,60.1Z" transform="translate(-1.125 -0.002)" fill="#dbc876"/>
</svg>
